# xmcd
#
# Track frame offsets: 
#        150
#        26155
#        48576
#        76254
#        96211
#        121068
#        141411
#        163217
#
# Disc length: 2518 seconds
#
# Revision: 2
# Processed by: cddbd v1.5.2PL0 Copyright (c) Steve Scherf et al.
# Submitted via: ExactAudioCopy v0.99pb5
#
DISCID=6909d408
DTITLE=Jimmy Smith - Plays Pretty Just For You
DYEAR=1957
DGENRE=Jazz
TTITLE0=The Nearness Of You
TTITLE1=The Jitterbug Waltz
TTITLE2=East Of The Sun
TTITLE3=Autumn In New York
TTITLE4=Penthouse Serenade
TTITLE5=The Very Thought Of You
TTITLE6=I Can't Get Started
TTITLE7=Old Devil Moon
EXTD=YEAR: 1957
EXTT0=
EXTT1=
EXTT2=
EXTT3=
EXTT4=
EXTT5=
EXTT6=
EXTT7=
PLAYORDER=
